<svg width="43" height="44" viewBox="0 0 43 44" fill="none" xmlns="http://www.w3.org/2000/svg">
<g clip-path="url(#clip0_156_297)">
<path d="M16.1358 34.253C7.18015 36.8915 7.18015 29.8554 3.5979 28.9759M28.6736 39.5301V32.7226C28.7408 31.8839 28.6254 31.0407 28.3351 30.2491C28.0448 29.4575 27.5863 28.7356 26.99 28.1315C32.6141 27.5159 38.5248 25.4226 38.5248 15.8183C38.5243 13.3624 37.5624 11.0006 35.8381 9.22191C36.6546 7.07326 36.5969 4.69828 35.6769 2.59034C35.6769 2.59034 33.5634 1.97468 28.6736 5.19372C24.5684 4.10104 20.241 4.10104 16.1358 5.19372C11.246 1.97468 9.13247 2.59034 9.13247 2.59034C8.21251 4.69828 8.15477 7.07326 8.97127 9.22191C7.23411 11.0138 6.27119 13.3969 6.28458 15.8711C6.28458 25.405 12.1953 27.4983 17.8194 28.1843C17.2301 28.7823 16.7757 29.4955 16.4856 30.2774C16.1955 31.0593 16.0763 31.8925 16.1358 32.7226V39.5301" stroke="#1E1E1E" stroke-width="4" stroke-linecap="round" stroke-linejoin="round"/>
</g>
<defs>
<clipPath id="clip0_156_297">
<rect width="42.9869" height="42.2169" fill="white" transform="translate(0.015625 0.831299)"/>
</clipPath>
</defs>
</svg>
