<svg width="44" height="44" viewBox="0 0 44 44" fill="none" xmlns="http://www.w3.org/2000/svg">
<path d="M32.081 12.265H32.0989M13.2742 4.34937H31.1854C36.1315 4.34937 40.1411 8.2871 40.1411 13.1445V30.7349C40.1411 35.5923 36.1315 39.5301 31.1854 39.5301H13.2742C8.32817 39.5301 4.3186 35.5923 4.3186 30.7349V13.1445C4.3186 8.2871 8.32817 4.34937 13.2742 4.34937ZM29.3943 20.8315C29.6154 22.2955 29.3607 23.7906 28.6667 25.1043C27.9726 26.4179 26.8745 27.4832 25.5284 28.1485C24.1823 28.8139 22.6569 29.0455 21.1691 28.8104C19.6813 28.5753 18.3068 27.8854 17.2413 26.8389C16.1757 25.7924 15.4732 24.4426 15.2338 22.9815C14.9944 21.5203 15.2302 20.0222 15.9078 18.7002C16.5853 17.3783 17.67 16.2998 19.0076 15.6182C20.3452 14.9365 21.8676 14.6865 23.3582 14.9036C24.8788 15.125 26.2865 15.8209 27.3734 16.8883C28.4603 17.9558 29.1688 19.3382 29.3943 20.8315Z" stroke="#1E1E1E" stroke-width="4" stroke-linecap="round" stroke-linejoin="round"/>
</svg>
